Atma-Light.ufo
<glyph name="period" format="1">
  <advance width="149"/>
  <unicode hex="002E"/>
  <outline>
    <contour>
      <point x="112" y="25"/>
      <point x="113" y="45"/>
      <point x="114" y="69" type="curve"/>
      <point x="81" y="74"/>
      <point x="54" y="70"/>
      <point x="35" y="66" type="curve"/>
      <point x="35" y="42"/>
      <point x="37" y="27"/>
      <point x="38" y="1" type="curve"/>
      <point x="61" y="-2"/>
      <point x="81" y="-2"/>
      <point x="108" y="1" type="curve"/>
    </contour>
  </outline>
</glyph>
<glyph name="four" format="1">
  <advance width="478"/>
  <unicode hex="0034"/>
  <outline>
    <contour>
      <point x="471" y="134" type="curve"/>
      <point x="477" y="149"/>
      <point x="481" y="165"/>
      <point x="483" y="182" type="curve"/>
      <point x="328" y="186"/>
      <point x="206" y="199"/>
      <point x="60" y="234" type="curve"/>
      <point x="55" y="192" type="line"/>
      <point x="177" y="363"/>
      <point x="265" y="546"/>
      <point x="332" y="733" type="curve"/>
      <point x="313" y="742"/>
      <point x="294" y="749"/>
      <point x="275" y="752" type="curve"/>
      <point x="210" y="541"/>
      <point x="149" y="409"/>
      <point x="20" y="224" type="curve"/>
      <point x="24" y="211"/>
      <point x="29" y="199"/>
      <point x="37" y="186" type="curve"/>
      <point x="208" y="154"/>
      <point x="314" y="141"/>
    </contour>
    <contour>
      <point x="303" y="-42" type="curve"/>
      <point x="302" y="101"/>
      <point x="310" y="287"/>
      <point x="345" y="409" type="curve"/>
      <point x="338" y="411"/>
      <point x="326" y="412"/>
      <point x="315" y="411" type="curve" smooth="yes"/>
      <point x="302" y="410"/>
      <point x="293" y="407"/>
      <point x="287" y="404" type="curve"/>
      <point x="267" y="304"/>
      <point x="258" y="196"/>
      <point x="258" y="69" type="curve" smooth="yes"/>
      <point x="258" y="35"/>
      <point x="259" y="1"/>
      <point x="260" y="-35" type="curve"/>
      <point x="265" y="-37"/>
      <point x="271" y="-39"/>
      <point x="279" y="-40" type="curve" smooth="yes"/>
      <point x="286" y="-41"/>
      <point x="294" y="-42"/>
    </contour>
  </outline>
</glyph>
<glyph name="greater" format="1">
  <advance width="340"/>
  <unicode hex="003E"/>
  <outline>
    <contour>
      <point x="285" y="359" type="line"/>
      <point x="212" y="307"/>
      <point x="138" y="265"/>
      <point x="30" y="219" type="curve"/>
      <point x="33" y="205"/>
      <point x="37" y="198"/>
      <point x="43" y="181" type="curve"/>
      <point x="147" y="225"/>
      <point x="224" y="264"/>
      <point x="307" y="323" type="curve"/>
      <point x="310" y="358" type="line"/>
      <point x="236" y="415"/>
      <point x="152" y="458"/>
      <point x="46" y="499" type="curve"/>
      <point x="39" y="487"/>
      <point x="34" y="475"/>
      <point x="33" y="462" type="curve"/>
      <point x="141" y="416"/>
      <point x="226" y="373"/>
      <point x="288" y="322" type="curve"/>
    </contour>
  </outline>
</glyph>
<glyph name="l" format="1">
  <advance width="182"/>
  <unicode hex="006C"/>
  <outline>
    <contour>
      <point x="45" y="452"/>
      <point x="48" y="232"/>
      <point x="68" y="-61" type="curve"/>
      <point x="81" y="-61"/>
      <point x="108" y="-58"/>
      <point x="118" y="-55" type="curve"/>
      <point x="100" y="223"/>
      <point x="101" y="512"/>
      <point x="125" y="738" type="curve"/>
      <point x="114" y="741"/>
      <point x="104" y="742"/>
      <point x="95" y="742" type="curve" smooth="yes"/>
      <point x="83" y="742"/>
      <point x="70" y="738"/>
      <point x="62" y="734" type="curve"/>
    </contour>
  </outline>
</glyph>
<glyph name="cent" format="1">
  <advance width="411"/>
  <unicode hex="00A2"/>
  <outline>
    <contour>
      <point x="319" y="428" type="curve"/>
      <point x="342" y="428"/>
      <point x="361" y="433"/>
      <point x="378" y="441" type="curve"/>
      <point x="378" y="549"/>
      <point x="332" y="614"/>
      <point x="243" y="614" type="curve" smooth="yes"/>
      <point x="123" y="614"/>
      <point x="40" y="465"/>
      <point x="40" y="271" type="curve" smooth="yes"/>
      <point x="40" y="152"/>
      <point x="80" y="47"/>
      <point x="199" y="47" type="curve" smooth="yes"/>
      <point x="284" y="47"/>
      <point x="362" y="122"/>
      <point x="381" y="194" type="curve"/>
      <point x="376" y="204"/>
      <point x="355" y="217"/>
      <point x="338" y="219" type="curve"/>
      <point x="306" y="143"/>
      <point x="264" y="92"/>
      <point x="207" y="92" type="curve" smooth="yes"/>
      <point x="126" y="92"/>
      <point x="94" y="176"/>
      <point x="94" y="276" type="curve" smooth="yes"/>
      <point x="94" y="419"/>
      <point x="155" y="569"/>
      <point x="240" y="569" type="curve" smooth="yes"/>
      <point x="298" y="569"/>
      <point x="319" y="511"/>
    </contour>
    <contour>
      <point x="325" y="524" type="line"/>
      <point x="341" y="582"/>
      <point x="367" y="635"/>
      <point x="391" y="680" type="curve"/>
      <point x="371" y="691"/>
      <point x="359" y="695"/>
      <point x="345" y="695" type="curve"/>
      <point x="326" y="660"/>
      <point x="310" y="612"/>
      <point x="294" y="557" type="curve"/>
    </contour>
    <contour>
      <point x="151" y="97" type="curve"/>
      <point x="115" y="131" type="line"/>
      <point x="97" y="66"/>
      <point x="73" y="16"/>
      <point x="46" y="-34" type="curve"/>
      <point x="65" y="-45"/>
      <point x="82" y="-47"/>
      <point x="95" y="-47" type="curve"/>
      <point x="116" y="-6"/>
      <point x="138" y="43"/>
    </contour>
  </outline>
</glyph>
<glyph name="dieresis" format="1">
  <advance width="260"/>
  <unicode hex="00A8"/>
  <outline>
    <component base="dotaccent" xOffset="-65"/>
    <component base="dotaccent" xOffset="39"/>
    <contour>
      <point x="123" y="560" type="move" name="_top"/>
    </contour>
  </outline>
</glyph>
<glyph name="guillemotleft" format="1">
  <advance width="448"/>
  <unicode hex="00AB"/>
  <outline>
    <contour>
      <point x="184" y="70" type="curve"/>
      <point x="199" y="80"/>
      <point x="208" y="91"/>
      <point x="221" y="109" type="curve"/>
      <point x="141" y="163"/>
      <point x="84" y="223"/>
      <point x="52" y="277" type="curve"/>
      <point x="10" y="264" type="line"/>
      <point x="52" y="190"/>
      <point x="107" y="128"/>
    </contour>
    <contour>
      <point x="217" y="396" type="curve"/>
      <point x="207" y="411"/>
      <point x="196" y="420"/>
      <point x="178" y="433" type="curve"/>
      <point x="124" y="353"/>
      <point x="64" y="296"/>
      <point x="10" y="264" type="curve"/>
      <point x="41" y="233" type="line"/>
      <point x="107" y="273"/>
      <point x="164" y="325"/>
    </contour>
    <contour>
      <point x="381" y="70" type="curve"/>
      <point x="396" y="80"/>
      <point x="405" y="91"/>
      <point x="418" y="109" type="curve"/>
      <point x="338" y="163"/>
      <point x="281" y="223"/>
      <point x="249" y="277" type="curve"/>
      <point x="207" y="264" type="line"/>
      <point x="249" y="190"/>
      <point x="304" y="128"/>
    </contour>
    <contour>
      <point x="414" y="396" type="curve"/>
      <point x="404" y="411"/>
      <point x="393" y="420"/>
      <point x="375" y="433" type="curve"/>
      <point x="321" y="353"/>
      <point x="261" y="296"/>
      <point x="207" y="264" type="curve"/>
      <point x="238" y="233" type="line"/>
      <point x="304" y="273"/>
      <point x="361" y="325"/>
    </contour>
  </outline>
</glyph>
<glyph name="plusminus" format="1">
  <advance width="340"/>
  <unicode hex="00B1"/>
  <outline>
    <contour>
      <point x="26" y="164" type="curve"/>
      <point x="23" y="151"/>
      <point x="21" y="139"/>
      <point x="21" y="122" type="curve"/>
      <point x="116" y="111"/>
      <point x="213" y="111"/>
      <point x="304" y="122" type="curve"/>
      <point x="307" y="135"/>
      <point x="308" y="149"/>
      <point x="308" y="162" type="curve"/>
      <point x="184" y="152"/>
      <point x="109" y="154"/>
    </contour>
    <component base="plus" xOffset="-5"/>
  </outline>
</glyph>
<glyph name="germandbls" format="1">
  <advance width="537"/>
  <unicode hex="00DF"/>
  <outline>
    <contour>
      <point x="112" y="388" type="line"/>
      <point x="73" y="393"/>
      <point x="42" y="400"/>
      <point x="26" y="407" type="curve"/>
      <point x="26" y="416"/>
      <point x="27" y="437"/>
      <point x="32" y="442" type="curve"/>
      <point x="58" y="438"/>
      <point x="84" y="435"/>
      <point x="112" y="432" type="curve"/>
    </contour>
    <contour>
      <point x="296" y="397" type="curve" smooth="yes"/>
      <point x="296" y="265"/>
      <point x="514" y="276"/>
      <point x="514" y="115" type="curve" smooth="yes"/>
      <point x="514" y="27"/>
      <point x="462" y="-40"/>
      <point x="378" y="-40" type="curve" smooth="yes"/>
      <point x="291" y="-40"/>
      <point x="226" y="31"/>
      <point x="226" y="149" type="curve"/>
      <point x="241" y="153"/>
      <point x="257" y="156"/>
      <point x="278" y="155" type="curve"/>
      <point x="275" y="60"/>
      <point x="313" y="4"/>
      <point x="380" y="4" type="curve" smooth="yes"/>
      <point x="433" y="4"/>
      <point x="459" y="45"/>
      <point x="459" y="104" type="curve" smooth="yes"/>
      <point x="459" y="242"/>
      <point x="245" y="238"/>
      <point x="245" y="379" type="curve" smooth="yes"/>
      <point x="245" y="426"/>
      <point x="261" y="459"/>
      <point x="298" y="498" type="curve" smooth="yes"/>
      <point x="328" y="530"/>
      <point x="339" y="551"/>
      <point x="339" y="599" type="curve" smooth="yes"/>
      <point x="339" y="645"/>
      <point x="313" y="682"/>
      <point x="264" y="682" type="curve" smooth="yes"/>
      <point x="204" y="682"/>
      <point x="139" y="634"/>
      <point x="139" y="448" type="curve" smooth="yes"/>
      <point x="139" y="274"/>
      <point x="153" y="117"/>
      <point x="183" y="-9" type="curve"/>
      <point x="166" y="-15"/>
      <point x="146" y="-21"/>
      <point x="127" y="-21" type="curve"/>
      <point x="114" y="38"/>
      <point x="88" y="236"/>
      <point x="88" y="402" type="curve" smooth="yes"/>
      <point x="88" y="648"/>
      <point x="163" y="727"/>
      <point x="264" y="727" type="curve" smooth="yes"/>
      <point x="348" y="727"/>
      <point x="390" y="664"/>
      <point x="390" y="592" type="curve" smooth="yes"/>
      <point x="390" y="551"/>
      <point x="372" y="522"/>
      <point x="339" y="490" type="curve" smooth="yes"/>
      <point x="308" y="459"/>
      <point x="296" y="434"/>
    </contour>
  </outline>
</glyph>
<glyph name="dotaccent" format="1">
  <advance width="261"/>
  <unicode hex="02D9"/>
  <outline>
    <contour>
      <point x="162" y="666"/>
      <point x="177" y="706"/>
      <point x="190" y="734" type="curve"/>
      <point x="178" y="741"/>
      <point x="169" y="743"/>
      <point x="156" y="744" type="curve" smooth="yes"/>
      <point x="143" y="745"/>
      <point x="137" y="744"/>
      <point x="126" y="740" type="curve"/>
      <point x="114" y="714"/>
      <point x="108" y="674"/>
      <point x="108" y="648" type="curve" smooth="yes"/>
      <point x="108" y="640"/>
      <point x="108" y="634"/>
      <point x="109" y="626" type="curve"/>
      <point x="125" y="625"/>
      <point x="143" y="625"/>
      <point x="153" y="626" type="curve"/>
    </contour>
    <contour>
      <point x="130.0" y="560.0" type="move" name="_top"/>
    </contour>
  </outline>
</glyph>
<glyph name="ring" format="1">
  <advance width="260"/>
  <unicode hex="02DA"/>
  <outline>
    <contour>
      <point x="138" y="765" type="curve" smooth="yes"/>
      <point x="73" y="765"/>
      <point x="35" y="724"/>
      <point x="35" y="666" type="curve" smooth="yes"/>
      <point x="35" y="616"/>
      <point x="72" y="578"/>
      <point x="124" y="578" type="curve" smooth="yes"/>
      <point x="184" y="578"/>
      <point x="224" y="617"/>
      <point x="224" y="685" type="curve" smooth="yes"/>
      <point x="224" y="732"/>
      <point x="193" y="765"/>
    </contour>
    <contour>
      <point x="133" y="733" type="curve" smooth="yes"/>
      <point x="153" y="733"/>
      <point x="173" y="719"/>
      <point x="173" y="679" type="curve" smooth="yes"/>
      <point x="173" y="638"/>
      <point x="154" y="613"/>
      <point x="127" y="613" type="curve" smooth="yes"/>
      <point x="105" y="613"/>
      <point x="84" y="631"/>
      <point x="84" y="665" type="curve" smooth="yes"/>
      <point x="84" y="708"/>
      <point x="106" y="733"/>
    </contour>
    <contour>
      <point x="130.0" y="560.0" type="move" name="_top"/>
    </contour>
  </outline>
</glyph>
<glyph name="ogonek" format="1">
  <advance width="261"/>
  <unicode hex="02DB"/>
  <outline>
    <contour>
      <point x="155" y="0" type="curve"/>
      <point x="127" y="8" type="line"/>
      <point x="65" y="-35"/>
      <point x="33" y="-80"/>
      <point x="33" y="-130" type="curve" smooth="yes"/>
      <point x="33" y="-174"/>
      <point x="63" y="-204"/>
      <point x="110" y="-204" type="curve" smooth="yes"/>
      <point x="155" y="-204"/>
      <point x="183" y="-183"/>
      <point x="206" y="-147" type="curve"/>
      <point x="200" y="-130"/>
      <point x="194" y="-120"/>
      <point x="183" y="-111" type="curve"/>
      <point x="166" y="-143"/>
      <point x="148" y="-156"/>
      <point x="124" y="-156" type="curve" smooth="yes"/>
      <point x="100" y="-156"/>
      <point x="88" y="-141"/>
      <point x="88" y="-117" type="curve" smooth="yes"/>
      <point x="88" y="-81"/>
      <point x="105" y="-47"/>
    </contour>
    <contour>
      <point x="144.0" y="0.0" type="move" name="_bottom"/>
    </contour>
  </outline>
</glyph>
<glyph name="bn_currency1" format="1">
  <advance width="512"/>
  <unicode hex="09F4"/>
  <outline>
    <contour>
      <point x="101" y="-14" type="line"/>
      <point x="293" y="138"/>
      <point x="424" y="326"/>
      <point x="492" y="550" type="curve"/>
      <point x="479" y="557"/>
      <point x="464" y="563"/>
      <point x="449" y="566" type="curve"/>
      <point x="381" y="340"/>
      <point x="246" y="166"/>
      <point x="64" y="41" type="curve"/>
    </contour>
  </outline>
</glyph>
<glyph name="bn_currency4" format="1">
  <advance width="255"/>
  <unicode hex="09F7"/>
  <outline>
    <contour>
      <point x="138" y="-81" type="line"/>
      <point x="119" y="2"/>
      <point x="109" y="126"/>
      <point x="109" y="262" type="curve" smooth="yes"/>
      <point x="109" y="387"/>
      <point x="117" y="489"/>
      <point x="124" y="595" type="curve"/>
      <point x="87" y="587" type="line"/>
      <point x="66" y="394"/>
      <point x="65" y="265"/>
      <point x="65" y="63" type="curve" smooth="yes"/>
      <point x="65.0" y="20.037037037"/>
      <point x="68" y="-20"/>
      <point x="69" y="-57" type="curve"/>
    </contour>
  </outline>
</glyph>
<glyph name="quotesinglbase" format="1">
  <advance width="122"/>
  <unicode hex="201A"/>
  <outline>
    <contour>
      <point x="87" y="70" type="curve"/>
      <point x="69" y="72"/>
      <point x="49" y="71"/>
      <point x="31" y="69" type="curve"/>
      <point x="35" y="16"/>
      <point x="29" y="-63"/>
      <point x="10" y="-171" type="curve"/>
      <point x="20" y="-174"/>
      <point x="33" y="-177"/>
      <point x="45" y="-178" type="curve"/>
      <point x="79" y="-64"/>
      <point x="87" y="-6"/>
    </contour>
  </outline>
</glyph>
<glyph name="guilsinglleft" format="1">
  <advance width="251"/>
  <unicode hex="2039"/>
  <outline>
    <contour>
      <point x="184" y="70" type="curve"/>
      <point x="199" y="80"/>
      <point x="208" y="91"/>
      <point x="221" y="109" type="curve"/>
      <point x="141" y="163"/>
      <point x="84" y="223"/>
      <point x="52" y="277" type="curve"/>
      <point x="10" y="264" type="line"/>
      <point x="52" y="190"/>
      <point x="107" y="128"/>
    </contour>
    <contour>
      <point x="217" y="396" type="curve"/>
      <point x="207" y="411"/>
      <point x="196" y="420"/>
      <point x="178" y="433" type="curve"/>
      <point x="124" y="353"/>
      <point x="64" y="296"/>
      <point x="10" y="264" type="curve"/>
      <point x="41" y="233" type="line"/>
      <point x="107" y="273"/>
      <point x="164" y="325"/>
    </contour>
  </outline>
</glyph>
<glyph name="guilsinglright" format="1">
  <advance width="251"/>
  <unicode hex="203A"/>
  <outline>
    <contour>
      <point x="67" y="70" type="curve"/>
      <point x="144" y="128"/>
      <point x="199" y="190"/>
      <point x="241" y="264" type="curve"/>
      <point x="199" y="277" type="line"/>
      <point x="167" y="223"/>
      <point x="110" y="163"/>
      <point x="30" y="109" type="curve"/>
      <point x="43" y="91"/>
      <point x="52" y="80"/>
    </contour>
    <contour>
      <point x="34" y="396" type="curve"/>
      <point x="87" y="325"/>
      <point x="144" y="273"/>
      <point x="210" y="233" type="curve"/>
      <point x="241" y="264" type="line"/>
      <point x="187" y="296"/>
      <point x="127" y="353"/>
      <point x="73" y="433" type="curve"/>
      <point x="55" y="420"/>
      <point x="44" y="411"/>
    </contour>
  </outline>
</glyph>
<glyph name="uni2113" format="1">
  <advance width="543"/>
  <unicode hex="2113"/>
  <outline>
    <contour>
      <point x="533" y="561" type="curve" smooth="yes"/>
      <point x="533" y="666"/>
      <point x="479" y="745"/>
      <point x="375" y="745" type="curve" smooth="yes"/>
      <point x="231" y="745"/>
      <point x="133" y="571"/>
      <point x="133" y="342" type="curve" smooth="yes"/>
      <point x="133" y="120"/>
      <point x="217" y="-3"/>
      <point x="352" y="-3" type="curve" smooth="yes"/>
      <point x="412" y="-3"/>
      <point x="473" y="24"/>
      <point x="506" y="70" type="curve"/>
      <point x="502" y="83"/>
      <point x="493" y="96"/>
      <point x="477" y="107" type="curve"/>
      <point x="449" y="69"/>
      <point x="408" y="44"/>
      <point x="356" y="44" type="curve" smooth="yes"/>
      <point x="248" y="44"/>
      <point x="193" y="155"/>
      <point x="193" y="348" type="curve" smooth="yes"/>
      <point x="193" y="538"/>
      <point x="271" y="698"/>
      <point x="373" y="698" type="curve" smooth="yes"/>
      <point x="439" y="698"/>
      <point x="474" y="640"/>
      <point x="474" y="542" type="curve" smooth="yes"/>
      <point x="474" y="381"/>
      <point x="346" y="219"/>
      <point x="189" y="219" type="curve" smooth="yes"/>
      <point x="131" y="219"/>
      <point x="90" y="230"/>
      <point x="34" y="265" type="curve"/>
      <point x="23" y="252"/>
      <point x="15" y="235"/>
      <point x="10" y="216" type="curve"/>
      <point x="66" y="186"/>
      <point x="124" y="172"/>
      <point x="187" y="172" type="curve" smooth="yes"/>
      <point x="369" y="172"/>
      <point x="533" y="346"/>
    </contour>
  </outline>
</glyph>
<glyph name="trademark" format="1">
  <advance width="725"/>
  <unicode hex="2122"/>
  <outline>
    <contour>
      <point x="426" y="354" type="curve"/>
      <point x="409" y="448"/>
      <point x="401" y="539"/>
      <point x="401" y="617" type="curve" smooth="yes"/>
      <point x="401" y="658"/>
      <point x="400" y="679"/>
      <point x="408" y="729" type="curve"/>
      <point x="356" y="734" type="line"/>
      <point x="352" y="615"/>
      <point x="361" y="460"/>
      <point x="379" y="348" type="curve"/>
      <point x="388" y="348"/>
      <point x="421" y="352"/>
    </contour>
    <contour>
      <point x="677" y="327" type="curve"/>
      <point x="680" y="451"/>
      <point x="682" y="618"/>
      <point x="677" y="739" type="curve"/>
      <point x="634" y="739" type="line"/>
      <point x="636" y="569"/>
      <point x="632" y="438"/>
      <point x="625" y="319" type="curve"/>
      <point x="647" y="319"/>
      <point x="662" y="322"/>
    </contour>
    <contour>
      <point x="533" y="460" type="curve"/>
      <point x="600" y="567"/>
      <point x="634" y="636"/>
      <point x="677" y="739" type="curve"/>
      <point x="669" y="742"/>
      <point x="640" y="751"/>
      <point x="630" y="752" type="curve"/>
      <point x="602" y="656"/>
      <point x="576" y="597"/>
      <point x="516" y="501" type="curve"/>
      <point x="531" y="497" type="line"/>
      <point x="500" y="593"/>
      <point x="453" y="687"/>
      <point x="406" y="754" type="curve"/>
      <point x="397" y="753"/>
      <point x="364" y="740"/>
      <point x="356" y="734" type="curve"/>
      <point x="418" y="656"/>
      <point x="461" y="569"/>
      <point x="502" y="456" type="curve"/>
      <point x="507" y="456"/>
      <point x="527" y="459"/>
    </contour>
    <contour>
      <point x="297" y="713" type="curve"/>
      <point x="298" y="719"/>
      <point x="299" y="726"/>
      <point x="299" y="735" type="curve" smooth="yes"/>
      <point x="298" y="742"/>
      <point x="297" y="750"/>
      <point x="294" y="757" type="curve"/>
      <point x="188" y="756"/>
      <point x="116" y="749"/>
      <point x="10" y="731" type="curve"/>
      <point x="10" y="719"/>
      <point x="11" y="704"/>
      <point x="15" y="690" type="curve"/>
      <point x="127" y="706"/>
      <point x="189" y="712"/>
    </contour>
    <contour>
      <point x="195" y="354" type="curve"/>
      <point x="197" y="392"/>
      <point x="198" y="430"/>
      <point x="198" y="467" type="curve" smooth="yes"/>
      <point x="198" y="563"/>
      <point x="193" y="644"/>
      <point x="183" y="738" type="curve"/>
      <point x="168" y="738"/>
      <point x="137" y="735"/>
      <point x="125" y="732" type="curve"/>
      <point x="142" y="620"/>
      <point x="150" y="466"/>
      <point x="147" y="348" type="curve"/>
      <point x="166" y="348"/>
      <point x="183" y="351"/>
    </contour>
  </outline>
</glyph>
<glyph name="summation" format="1">
  <advance width="467.313708499"/>
  <unicode hex="2211"/>
  <outline>
    <contour>
      <point x="49" y="-41" type="curve"/>
      <point x="173" y="-40"/>
      <point x="301" y="-30"/>
      <point x="456" y="-4" type="curve"/>
      <point x="458" y="8"/>
      <point x="458" y="29"/>
      <point x="454" y="46" type="curve"/>
      <point x="337" y="20"/>
      <point x="214" y="6"/>
      <point x="100" y="4" type="curve"/>
      <point x="196" y="127"/>
      <point x="276" y="235"/>
      <point x="351" y="375" type="curve"/>
      <point x="231" y="473"/>
      <point x="136" y="567"/>
      <point x="67" y="657" type="curve"/>
      <point x="165" y="675"/>
      <point x="267" y="687"/>
      <point x="390" y="688" type="curve"/>
      <point x="393" y="703"/>
      <point x="394" y="718"/>
      <point x="393" y="735" type="curve"/>
      <point x="235" y="731"/>
      <point x="137" y="715"/>
      <point x="11" y="693" type="curve"/>
      <point x="9" y="679"/>
      <point x="9" y="664"/>
      <point x="13" y="648" type="curve"/>
      <point x="80" y="558"/>
      <point x="171" y="465"/>
      <point x="291" y="362" type="curve"/>
      <point x="216" y="231"/>
      <point x="159" y="146"/>
      <point x="43" y="-4" type="curve"/>
      <point x="43" y="-16"/>
      <point x="45" y="-29"/>
    </contour>
  </outline>
</glyph>
<glyph name="lessequal" format="1">
  <advance width="340"/>
  <unicode hex="2264"/>
  <outline>
    <contour>
      <point x="21" y="122" type="curve"/>
      <point x="116" y="111"/>
      <point x="213" y="111"/>
      <point x="304" y="122" type="curve"/>
      <point x="307" y="135"/>
      <point x="308" y="149"/>
      <point x="308" y="162" type="curve"/>
      <point x="184" y="152"/>
      <point x="109" y="154"/>
      <point x="26" y="164" type="curve"/>
      <point x="23" y="151"/>
      <point x="21" y="139"/>
    </contour>
    <contour>
      <point x="56" y="321" type="line"/>
      <point x="129" y="373"/>
      <point x="203" y="415"/>
      <point x="311" y="461" type="curve"/>
      <point x="308" y="474"/>
      <point x="304" y="481"/>
      <point x="298" y="498" type="curve"/>
      <point x="194" y="455"/>
      <point x="117" y="416"/>
      <point x="34" y="357" type="curve"/>
      <point x="31" y="322" type="line"/>
      <point x="105" y="265"/>
      <point x="189" y="222"/>
      <point x="295" y="181" type="curve"/>
      <point x="302" y="193"/>
      <point x="307" y="205"/>
      <point x="308" y="218" type="curve"/>
      <point x="200" y="264"/>
      <point x="115" y="307"/>
      <point x="53" y="358" type="curve"/>
    </contour>
  </outline>
</glyph>
<glyph name="bn_aakaar.b" format="1">
  <advance width="224"/>
  <outline>
    <contour>
      <point x="138" y="110"/>
      <point x="148" y="306"/>
      <point x="148" y="509" type="curve"/>
      <point x="129" y="498" type="line"/>
      <point x="100" y="494" type="line"/>
      <point x="100" y="265"/>
      <point x="87" y="102"/>
      <point x="61" y="-42" type="curve"/>
      <point x="74" y="-47"/>
      <point x="105" y="-51"/>
      <point x="127" y="-51" type="curve"/>
    </contour>
    <contour>
      <point x="136" y="466" type="line"/>
      <point x="136" y="550"/>
      <point x="80" y="586"/>
      <point x="39" y="586" type="curve" smooth="yes"/>
      <point x="29" y="586"/>
      <point x="16" y="585"/>
      <point x="0" y="581" type="curve"/>
      <point x="-3" y="576"/>
      <point x="-4" y="567"/>
      <point x="-4" y="559" type="curve" smooth="yes"/>
      <point x="-4" y="549"/>
      <point x="-2" y="540"/>
      <point x="0" y="535" type="curve"/>
      <point x="19" y="540"/>
      <point x="29" y="541"/>
      <point x="37" y="541" type="curve" smooth="yes"/>
      <point x="70" y="541"/>
      <point x="100" y="503"/>
      <point x="100" y="444" type="curve"/>
    </contour>
    <contour>
      <point x="150" y="502"/>
      <point x="176" y="521"/>
      <point x="224" y="535" type="curve"/>
      <point x="228" y="548"/>
      <point x="229" y="571"/>
      <point x="224" y="581" type="curve"/>
      <point x="167" y="566"/>
      <point x="116" y="540"/>
      <point x="105" y="506" type="curve"/>
      <point x="141" y="481" type="line"/>
    </contour>
  </outline>
</glyph>
<glyph name="bn_b_ba" format="1">
  <advance width="776"/>
  <outline>
    <contour>
      <point x="672" y="13" type="line"/>
      <point x="608" y="163"/>
      <point x="502" y="242"/>
      <point x="394" y="279" type="curve"/>
      <point x="400" y="252" type="line"/>
      <point x="464" y="330"/>
      <point x="596" y="421"/>
      <point x="670" y="451" type="curve"/>
      <point x="674" y="512" type="line"/>
      <point x="553" y="459"/>
      <point x="417" y="361"/>
      <point x="356" y="285" type="curve"/>
      <point x="358" y="265"/>
      <point x="363" y="247"/>
      <point x="383" y="227" type="curve"/>
      <point x="492" y="203"/>
      <point x="584" y="128"/>
      <point x="657" y="-16" type="curve"/>
    </contour>
    <contour>
      <point x="677" y="-16"/>
      <point x="697" y="-13"/>
      <point x="711" y="-4" type="curve"/>
      <point x="688" y="77"/>
      <point x="684" y="209"/>
      <point x="684" y="291" type="curve" smooth="yes"/>
      <point x="684" y="401"/>
      <point x="690" y="468"/>
      <point x="707" y="562" type="curve"/>
      <point x="666" y="572" type="line"/>
      <point x="646" y="453"/>
      <point x="637" y="341"/>
      <point x="637" y="199" type="curve" smooth="yes"/>
      <point x="637" y="72"/>
      <point x="647" y="22"/>
      <point x="657" y="-16" type="curve"/>
    </contour>
    <contour>
      <point x="352" y="13" type="line"/>
      <point x="288" y="163"/>
      <point x="182" y="242"/>
      <point x="74" y="279" type="curve"/>
      <point x="80" y="252" type="line"/>
      <point x="144" y="330"/>
      <point x="276" y="421"/>
      <point x="350" y="451" type="curve"/>
      <point x="354" y="512" type="line"/>
      <point x="233" y="459"/>
      <point x="97" y="361"/>
      <point x="36" y="285" type="curve"/>
      <point x="38" y="265"/>
      <point x="43" y="247"/>
      <point x="63" y="227" type="curve"/>
      <point x="172" y="203"/>
      <point x="264" y="128"/>
      <point x="337" y="-16" type="curve"/>
    </contour>
    <contour>
      <point x="357" y="-16"/>
      <point x="377" y="-13"/>
      <point x="391" y="-4" type="curve"/>
      <point x="368" y="77"/>
      <point x="364" y="209"/>
      <point x="364" y="291" type="curve" smooth="yes"/>
      <point x="364.0" y="409.929889299"/>
      <point x="369.639882562" y="482.479350636"/>
      <point x="388" y="584" type="curve"/>
      <point x="347" y="594" type="line"/>
      <point x="325.833683603" y="468.060417437"/>
      <point x="317.0" y="349.375335121"/>
      <point x="317" y="199" type="curve" smooth="yes"/>
      <point x="317" y="72"/>
      <point x="327" y="22"/>
      <point x="337" y="-16" type="curve"/>
    </contour>
    <contour>
      <point x="82.0048362483" y="554.001120594"/>
      <point x="212" y="574"/>
      <point x="400" y="574" type="curve" smooth="yes"/>
      <point x="575" y="574"/>
      <point x="692.897941344" y="553.184228899"/>
      <point x="777" y="535" type="curve"/>
      <point x="779" y="541"/>
      <point x="781" y="551"/>
      <point x="781" y="561" type="curve" smooth="yes"/>
      <point x="781" y="568"/>
      <point x="780" y="576"/>
      <point x="777" y="581" type="curve"/>
      <point x="701.082545244" y="601.395734114"/>
      <point x="577.0" y="624.0"/>
      <point x="399" y="624" type="curve" smooth="yes"/>
      <point x="210.0" y="624.0"/>
      <point x="81.0063521642" y="603.001725279"/>
      <point x="0" y="581" type="curve"/>
      <point x="-3" y="576"/>
      <point x="-5" y="569"/>
      <point x="-5" y="561" type="curve" smooth="yes"/>
      <point x="-5" y="552"/>
      <point x="-3" y="543"/>
      <point x="0" y="535" type="curve"/>
    </contour>
    <contour>
      <point x="672" y="-3" type="move" name="blwm"/>
    </contour>
    <contour>
      <point x="561" y="-3" type="move" name="haln"/>
    </contour>
    <contour>
      <point x="662" y="690" type="move" name="reph"/>
    </contour>
    <contour>
      <point x="662" y="690" type="move" name="chandrabindu"/>
    </contour>
  </outline>
</glyph>
<glyph name="bn_b_ra_ukaar" format="1">
  <advance width="636"/>
  <outline>
    <contour>
      <point x="560" y="165"/>
      <point x="611" y="231"/>
      <point x="611" y="318" type="curve" smooth="yes"/>
      <point x="611" y="400"/>
      <point x="566" y="452"/>
      <point x="511" y="452" type="curve" smooth="yes"/>
      <point x="470" y="452"/>
      <point x="441" y="424"/>
      <point x="426" y="388" type="curve"/>
      <point x="430" y="371"/>
      <point x="442" y="347"/>
      <point x="455" y="334" type="curve"/>
      <point x="461" y="366"/>
      <point x="478" y="405"/>
      <point x="513" y="405" type="curve" smooth="yes"/>
      <point x="543" y="405"/>
      <point x="567" y="375"/>
      <point x="567" y="323" type="curve" smooth="yes"/>
      <point x="567" y="258"/>
      <point x="529" y="214"/>
      <point x="479" y="214" type="curve" smooth="yes"/>
      <point x="426" y="214"/>
      <point x="375" y="262"/>
      <point x="355" y="351" type="curve"/>
      <point x="342" y="303" type="line"/>
      <point x="368" y="216"/>
      <point x="421" y="165"/>
      <point x="486" y="165" type="curve" smooth="yes"/>
    </contour>
    <contour>
      <point x="70" y="550"/>
      <point x="181" y="568"/>
      <point x="297" y="568" type="curve" smooth="yes"/>
      <point x="428" y="568"/>
      <point x="557" y="553"/>
      <point x="636" y="535" type="curve"/>
      <point x="639" y="542"/>
      <point x="641" y="552"/>
      <point x="641" y="559" type="curve" smooth="yes"/>
      <point x="641" y="567"/>
      <point x="639" y="576"/>
      <point x="636" y="581" type="curve"/>
      <point x="559" y="600"/>
      <point x="431" y="618"/>
      <point x="298" y="618" type="curve" smooth="yes"/>
      <point x="180" y="618"/>
      <point x="68" y="598"/>
      <point x="0" y="581" type="curve"/>
      <point x="-3" y="576"/>
      <point x="-5" y="567"/>
      <point x="-5" y="560" type="curve" smooth="yes"/>
      <point x="-5" y="551"/>
      <point x="-3" y="541"/>
      <point x="0" y="535" type="curve"/>
    </contour>
    <contour>
      <point x="344" y="-7" type="line"/>
      <point x="324" y="170"/>
      <point x="188" y="254"/>
      <point x="90" y="292" type="curve"/>
      <point x="97" y="266" type="line"/>
      <point x="157" y="339"/>
      <point x="282" y="423"/>
      <point x="353" y="451" type="curve"/>
      <point x="356" y="512" type="line"/>
      <point x="240" y="462"/>
      <point x="110" y="370"/>
      <point x="52" y="299" type="curve"/>
      <point x="54" y="279"/>
      <point x="59" y="261"/>
      <point x="79" y="242" type="curve"/>
      <point x="177" y="216"/>
      <point x="298" y="135"/>
      <point x="326" y="-36" type="curve"/>
    </contour>
    <contour>
      <point x="358" y="-224"/>
      <point x="376" y="-222"/>
      <point x="391" y="-215" type="curve"/>
      <point x="367" y="-75"/>
      <point x="367" y="158"/>
      <point x="367" y="283" type="curve" smooth="yes"/>
      <point x="367" y="407"/>
      <point x="370" y="475"/>
      <point x="380" y="572" type="curve"/>
      <point x="339" y="582" type="line"/>
      <point x="325" y="443"/>
      <point x="319" y="339"/>
      <point x="319" y="203" type="curve" smooth="yes"/>
      <point x="319" y="-56"/>
      <point x="330" y="-150"/>
      <point x="338" y="-224" type="curve"/>
    </contour>
    <contour>
      <point x="352" y="-195" type="line"/>
      <point x="325" y="-142"/>
      <point x="290" y="-116"/>
      <point x="233" y="-116" type="curve" smooth="yes"/>
      <point x="182" y="-116"/>
      <point x="143" y="-128"/>
      <point x="103" y="-128" type="curve" smooth="yes"/>
      <point x="63" y="-128"/>
      <point x="32" y="-108"/>
      <point x="32" y="-61" type="curve" smooth="yes"/>
      <point x="32" y="-32"/>
      <point x="43" y="0"/>
      <point x="55" y="22" type="curve"/>
      <point x="45" y="31"/>
      <point x="33" y="37"/>
      <point x="15" y="38" type="curve"/>
      <point x="0" y="7"/>
      <point x="-15" y="-28"/>
      <point x="-15" y="-65" type="curve" smooth="yes"/>
      <point x="-15" y="-129"/>
      <point x="25" y="-177"/>
      <point x="97" y="-177" type="curve" smooth="yes"/>
      <point x="145" y="-177"/>
      <point x="190" y="-165"/>
      <point x="237" y="-165" type="curve" smooth="yes"/>
      <point x="297" y="-165"/>
      <point x="317" y="-200"/>
      <point x="338" y="-224" type="curve"/>
    </contour>
    <contour>
      <point x="345" y="690" type="move" name="chandrabindu"/>
    </contour>
    <contour>
      <point x="345" y="690" type="move" name="reph"/>
    </contour>
    <contour>
      <point x="356" y="-213" type="move" name="blwm"/>
    </contour>
    <contour>
      <point x="211" y="-213" type="move" name="haln"/>
    </contour>
  </outline>
</glyph>
<glyph name="bn_d_ra_uukaar" format="1">
  <advance width="739"/>
  <outline>
    <contour>
      <point x="359" y="568" type="curve" smooth="yes"/>
      <point x="505" y="568"/>
      <point x="650" y="555"/>
      <point x="738" y="535" type="curve"/>
      <point x="741" y="542"/>
      <point x="743" y="552"/>
      <point x="743" y="559" type="curve" smooth="yes"/>
      <point x="743" y="567"/>
      <point x="741" y="576"/>
      <point x="738" y="581" type="curve"/>
      <point x="652" y="602"/>
      <point x="509" y="618"/>
      <point x="360" y="618" type="curve" smooth="yes"/>
      <point x="217" y="618"/>
      <point x="81" y="602"/>
      <point x="0" y="581" type="curve"/>
      <point x="-3" y="576"/>
      <point x="-5" y="567"/>
      <point x="-5" y="560" type="curve" smooth="yes"/>
      <point x="-5" y="551"/>
      <point x="-3" y="541"/>
      <point x="0" y="535" type="curve"/>
      <point x="84" y="553"/>
      <point x="219" y="568"/>
    </contour>
    <contour>
      <point x="448" y="-53" type="line"/>
      <point x="426" y="13"/>
      <point x="380" y="42"/>
      <point x="307" y="42" type="curve" smooth="yes"/>
      <point x="242" y="42"/>
      <point x="155" y="6"/>
      <point x="95" y="6" type="curve" smooth="yes"/>
      <point x="60" y="6"/>
      <point x="31" y="25"/>
      <point x="31" y="71" type="curve" smooth="yes"/>
      <point x="31" y="101"/>
      <point x="44" y="143"/>
      <point x="61" y="169" type="curve"/>
      <point x="50" y="177"/>
      <point x="38" y="182"/>
      <point x="20" y="183" type="curve"/>
      <point x="2" y="149"/>
      <point x="-15" y="103"/>
      <point x="-15" y="62" type="curve" smooth="yes"/>
      <point x="-15" y="1"/>
      <point x="23" y="-46"/>
      <point x="87" y="-46" type="curve" smooth="yes"/>
      <point x="158" y="-46"/>
      <point x="251" y="-9"/>
      <point x="311" y="-9" type="curve" smooth="yes"/>
      <point x="386" y="-9"/>
      <point x="415" y="-40"/>
      <point x="435" y="-80" type="curve"/>
    </contour>
    <contour>
      <point x="485" y="-62" type="curve"/>
      <point x="464" y="28"/>
      <point x="452" y="116"/>
      <point x="452" y="197" type="curve" smooth="yes"/>
      <point x="452" y="277"/>
      <point x="464" y="353"/>
      <point x="486" y="422" type="curve"/>
      <point x="475" y="441"/>
      <point x="462" y="455"/>
      <point x="442" y="465" type="curve"/>
      <point x="345" y="405"/>
      <point x="241" y="311"/>
      <point x="152" y="179" type="curve"/>
      <point x="177" y="184" type="line"/>
      <point x="209" y="282"/>
      <point x="224" y="422"/>
      <point x="224" y="532" type="curve" smooth="yes"/>
      <point x="224" y="550"/>
      <point x="224" y="568"/>
      <point x="223" y="584" type="curve"/>
      <point x="189" y="578" type="line"/>
      <point x="187" y="445"/>
      <point x="161" y="284"/>
      <point x="120" y="145" type="curve"/>
      <point x="131" y="133"/>
      <point x="154" y="123"/>
      <point x="171" y="120" type="curve"/>
      <point x="233" y="226"/>
      <point x="348" y="346"/>
      <point x="456" y="413" type="curve"/>
      <point x="439" y="424" type="line"/>
      <point x="418" y="357"/>
      <point x="404" y="267"/>
      <point x="404" y="171" type="curve" smooth="yes"/>
      <point x="404" y="88"/>
      <point x="415" y="1"/>
      <point x="435" y="-80" type="curve"/>
      <point x="453" y="-76"/>
      <point x="469" y="-70"/>
    </contour>
    <contour>
      <point x="671" y="63" type="curve"/>
      <point x="645" y="124"/>
      <point x="634" y="188"/>
      <point x="634" y="252" type="curve" smooth="yes"/>
      <point x="634" y="294"/>
      <point x="639" y="336"/>
      <point x="648" y="378" type="curve"/>
      <point x="628" y="419" type="line"/>
      <point x="569" y="400"/>
      <point x="507" y="372"/>
      <point x="447" y="344" type="curve"/>
      <point x="456" y="292" type="line"/>
      <point x="514" y="321"/>
      <point x="570" y="347"/>
      <point x="624" y="367" type="curve"/>
      <point x="603" y="376" type="line"/>
      <point x="594" y="331"/>
      <point x="590" y="286"/>
      <point x="590" y="242" type="curve" smooth="yes"/>
      <point x="590" y="174"/>
      <point x="600" y="110"/>
      <point x="617" y="52" type="curve"/>
      <point x="635" y="52"/>
      <point x="658" y="54"/>
    </contour>
    <contour>
      <point x="384" y="690" type="move" name="reph"/>
    </contour>
    <contour>
      <point x="384" y="690" type="move" name="chandrabindu"/>
    </contour>
    <contour>
      <point x="327" y="-62" type="move" name="haln"/>
    </contour>
    <contour>
      <point x="444" y="-62" type="move" name="blwm"/>
    </contour>
  </outline>
</glyph>
<glyph name="bn_h_na" format="1">
  <advance width="442"/>
  <outline>
    <contour>
      <point x="315" y="-225"/>
      <point x="337" y="-225"/>
      <point x="352" y="-217" type="curve"/>
      <point x="340" y="-184"/>
      <point x="337" y="-138"/>
      <point x="337" y="-94" type="curve" smooth="yes"/>
      <point x="337" y="-61"/>
      <point x="337" y="-16"/>
      <point x="344" y="17" type="curve"/>
      <point x="304" y="22" type="line"/>
      <point x="293" y="-26"/>
      <point x="287" y="-95"/>
      <point x="287" y="-143" type="curve" smooth="yes"/>
      <point x="287" y="-184"/>
      <point x="291" y="-207"/>
      <point x="295" y="-224" type="curve"/>
    </contour>
    <contour>
      <point x="173" y="-200"/>
      <point x="176" y="-176"/>
      <point x="176" y="-158" type="curve"/>
      <point x="166" y="-165"/>
      <point x="145" y="-170"/>
      <point x="121" y="-170" type="curve" smooth="yes"/>
      <point x="74" y="-170"/>
      <point x="48" y="-148"/>
      <point x="48" y="-111" type="curve" smooth="yes"/>
      <point x="48" y="-71"/>
      <point x="77" y="-49"/>
      <point x="123" y="-49" type="curve" smooth="yes"/>
      <point x="205" y="-49"/>
      <point x="275" y="-131"/>
      <point x="295" y="-224" type="curve"/>
      <point x="311" y="-165" type="line"/>
      <point x="275" y="-65"/>
      <point x="197" y="3"/>
      <point x="122" y="3" type="curve" smooth="yes"/>
      <point x="54" y="3"/>
      <point x="6" y="-42"/>
      <point x="6" y="-108" type="curve" smooth="yes"/>
      <point x="6" y="-177"/>
      <point x="57" y="-223"/>
      <point x="128" y="-223" type="curve" smooth="yes"/>
      <point x="150" y="-223"/>
      <point x="165" y="-219"/>
      <point x="170" y="-214" type="curve"/>
    </contour>
    <contour>
      <point x="444" y="-105"/>
      <point x="455" y="-92"/>
      <point x="464" y="-77" type="curve"/>
      <point x="361" y="28"/>
      <point x="251" y="104"/>
      <point x="143" y="152" type="curve"/>
      <point x="129" y="129" type="line"/>
      <point x="155" y="124"/>
      <point x="181" y="122"/>
      <point x="202" y="122" type="curve" smooth="yes"/>
      <point x="307" y="122"/>
      <point x="376" y="173"/>
      <point x="376" y="270" type="curve" smooth="yes"/>
      <point x="376" y="386"/>
      <point x="279" y="498"/>
      <point x="171" y="498" type="curve" smooth="yes"/>
      <point x="113" y="498"/>
      <point x="70" y="466"/>
      <point x="70" y="408" type="curve" smooth="yes"/>
      <point x="70" y="374"/>
      <point x="84" y="342"/>
      <point x="113" y="308" type="curve"/>
      <point x="129" y="307"/>
      <point x="154" y="310"/>
      <point x="170" y="317" type="curve"/>
      <point x="144" y="341"/>
      <point x="115" y="372"/>
      <point x="115" y="407" type="curve" smooth="yes"/>
      <point x="115" y="437"/>
      <point x="136" y="457"/>
      <point x="175" y="457" type="curve" smooth="yes"/>
      <point x="254" y="457"/>
      <point x="328" y="368"/>
      <point x="328" y="281" type="curve" smooth="yes"/>
      <point x="328" y="212"/>
      <point x="281" y="171"/>
      <point x="199" y="171" type="curve" smooth="yes"/>
      <point x="151" y="171"/>
      <point x="95" y="184"/>
      <point x="34" y="207" type="curve"/>
      <point x="54" y="137" type="line"/>
      <point x="193" y="94"/>
      <point x="313" y="15"/>
      <point x="432" y="-118" type="curve"/>
    </contour>
    <contour>
      <point x="58" y="548"/>
      <point x="149" y="561"/>
      <point x="224" y="561" type="curve" smooth="yes"/>
      <point x="302" y="561"/>
      <point x="393" y="548"/>
      <point x="442" y="535" type="curve"/>
      <point x="444" y="542"/>
      <point x="445" y="552"/>
      <point x="445" y="561" type="curve" smooth="yes"/>
      <point x="445" y="569"/>
      <point x="445" y="576"/>
      <point x="442" y="581" type="curve"/>
      <point x="396" y="597"/>
      <point x="301" y="611"/>
      <point x="225" y="611" type="curve" smooth="yes"/>
      <point x="149" y="611"/>
      <point x="56" y="597"/>
      <point x="0" y="581" type="curve"/>
      <point x="-4" y="576"/>
      <point x="-6" y="569"/>
      <point x="-6" y="560" type="curve" smooth="yes"/>
      <point x="-6" y="552"/>
      <point x="-4" y="543"/>
      <point x="0" y="535" type="curve"/>
    </contour>
    <contour>
      <point x="314" y="-212" type="move" name="blwm"/>
    </contour>
    <contour>
      <point x="178" y="-212" type="move" name="haln"/>
    </contour>
    <contour>
      <point x="220" y="690" type="move" name="reph"/>
    </contour>
    <contour>
      <point x="220" y="690" type="move" name="chandrabindu"/>
    </contour>
  </outline>
</glyph>
<glyph name="bn_j_ra" format="1">
  <advance width="738"/>
  <outline>
    <contour>
      <point x="372" y="23"/>
      <point x="424" y="101"/>
      <point x="424" y="222" type="curve" smooth="yes"/>
      <point x="424" y="269"/>
      <point x="416" y="320"/>
      <point x="405" y="363" type="curve"/>
      <point x="397" y="374"/>
      <point x="385" y="387"/>
      <point x="374" y="393" type="curve"/>
      <point x="333" y="348"/>
      <point x="284" y="317"/>
      <point x="252" y="317" type="curve" smooth="yes"/>
      <point x="231" y="317"/>
      <point x="206" y="328"/>
      <point x="206" y="372" type="curve" smooth="yes"/>
      <point x="206" y="431"/>
      <point x="247" y="522"/>
      <point x="290" y="576" type="curve"/>
      <point x="240" y="581" type="line"/>
      <point x="201" y="531"/>
      <point x="163" y="442"/>
      <point x="163" y="381" type="curve" smooth="yes"/>
      <point x="163" y="310"/>
      <point x="214" y="269"/>
      <point x="264" y="269" type="curve" smooth="yes"/>
      <point x="309" y="269"/>
      <point x="356" y="308"/>
      <point x="395" y="348" type="curve"/>
      <point x="369" y="365" type="line"/>
      <point x="378" y="329"/>
      <point x="384" y="281"/>
      <point x="384" y="239" type="curve" smooth="yes"/>
      <point x="384" y="131"/>
      <point x="349" y="77"/>
      <point x="280" y="77" type="curve" smooth="yes"/>
      <point x="181" y="77"/>
      <point x="112" y="183"/>
      <point x="50" y="452" type="curve"/>
      <point x="36" y="448"/>
      <point x="21" y="443"/>
      <point x="8" y="436" type="curve"/>
      <point x="52" y="242"/>
      <point x="119" y="23"/>
      <point x="279" y="23" type="curve" smooth="yes"/>
    </contour>
    <contour>
      <point x="67" y="551"/>
      <point x="200" y="576"/>
      <point x="367" y="576" type="curve" smooth="yes"/>
      <point x="534" y="576"/>
      <point x="664" y="551"/>
      <point x="738" y="535" type="curve"/>
      <point x="740" y="541"/>
      <point x="742" y="551"/>
      <point x="742" y="561" type="curve" smooth="yes"/>
      <point x="742" y="568"/>
      <point x="741" y="576"/>
      <point x="738" y="581" type="curve"/>
      <point x="671" y="600"/>
      <point x="539" y="626"/>
      <point x="371" y="626" type="curve" smooth="yes"/>
      <point x="202" y="626"/>
      <point x="66" y="600"/>
      <point x="0" y="581" type="curve"/>
      <point x="-3" y="576"/>
      <point x="-5" y="569"/>
      <point x="-5" y="561" type="curve" smooth="yes"/>
      <point x="-5" y="552"/>
      <point x="-3" y="543"/>
      <point x="0" y="535" type="curve"/>
    </contour>
    <contour>
      <point x="283" y="582" type="line"/>
      <point x="323" y="502"/>
      <point x="391" y="429"/>
      <point x="509" y="429" type="curve" smooth="yes"/>
      <point x="535" y="429"/>
      <point x="567" y="435"/>
      <point x="595" y="451" type="curve"/>
      <point x="583" y="459" type="line"/>
      <point x="559" y="388"/>
      <point x="549" y="303"/>
      <point x="549" y="219" type="curve" smooth="yes"/>
      <point x="549.0" y="64.922005571"/>
      <point x="561" y="-82"/>
      <point x="592" y="-220" type="curve"/>
      <point x="610" y="-220"/>
      <point x="634" y="-213"/>
      <point x="648" y="-205" type="curve"/>
      <point x="605.889626788" y="-53.6031820219"/>
      <point x="599.0" y="101.12335958"/>
      <point x="599" y="256" type="curve" smooth="yes"/>
      <point x="599" y="326"/>
      <point x="608" y="394"/>
      <point x="629" y="459" type="curve"/>
      <point x="623" y="478"/>
      <point x="611" y="496"/>
      <point x="597" y="507" type="curve"/>
      <point x="566" y="488"/>
      <point x="532" y="479"/>
      <point x="502" y="479" type="curve" smooth="yes"/>
      <point x="401" y="479"/>
      <point x="354" y="527"/>
      <point x="312" y="611" type="curve"/>
    </contour>
    <contour>
      <point x="605" y="-193" type="line"/>
      <point x="576.577851591" y="-107.733554772"/>
      <point x="527.354609929" y="-68.0"/>
      <point x="444" y="-68" type="curve" smooth="yes"/>
      <point x="353.823529412" y="-68.0"/>
      <point x="233.588235294" y="-104.0"/>
      <point x="152" y="-104" type="curve" smooth="yes"/>
      <point x="117" y="-104"/>
      <point x="88" y="-85"/>
      <point x="88" y="-39" type="curve" smooth="yes"/>
      <point x="88" y="-9"/>
      <point x="101" y="33"/>
      <point x="118" y="59" type="curve"/>
      <point x="107" y="67"/>
      <point x="95" y="72"/>
      <point x="77" y="73" type="curve"/>
      <point x="59" y="39"/>
      <point x="42" y="-7"/>
      <point x="42" y="-48" type="curve" smooth="yes"/>
      <point x="42" y="-109"/>
      <point x="80" y="-156"/>
      <point x="144" y="-156" type="curve" smooth="yes"/>
      <point x="240.338028169" y="-156.0"/>
      <point x="366.647887324" y="-119.0"/>
      <point x="448" y="-119" type="curve" smooth="yes"/>
      <point x="535.096774194" y="-119.0"/>
      <point x="565.135337616" y="-165.237418987"/>
      <point x="592" y="-220" type="curve"/>
    </contour>
    <contour>
      <point x="398" y="690" type="move" name="chandrabindu"/>
    </contour>
    <contour>
      <point x="398" y="690" type="move" name="reph"/>
    </contour>
    <contour>
      <point x="611" y="-201" type="move" name="blwm"/>
    </contour>
    <contour>
      <point x="487" y="-200" type="move" name="haln"/>
    </contour>
  </outline>
</glyph>
<glyph name="bn_kh_ba" format="1">
  <advance width="526"/>
  <outline>
    <contour>
      <point x="280" y="-200" type="line"/>
      <point x="238" y="-123"/>
      <point x="182" y="-94"/>
      <point x="91" y="-75" type="curve"/>
      <point x="92" y="-102" type="line"/>
      <point x="152" y="-58"/>
      <point x="284" y="-17"/>
      <point x="352" y="-3" type="curve"/>
      <point x="334" y="48" type="line"/>
      <point x="223" y="13"/>
      <point x="108" y="-19"/>
      <point x="55" y="-62" type="curve"/>
      <point x="54" y="-82"/>
      <point x="60" y="-101"/>
      <point x="76" y="-119" type="curve"/>
      <point x="167" y="-131"/>
      <point x="214" y="-152"/>
      <point x="266" y="-228" type="curve"/>
    </contour>
    <contour>
      <point x="339" y="-4" type="curve"/>
      <point x="368" y="10" type="line"/>
      <point x="326" y="142"/>
      <point x="256" y="257"/>
      <point x="140" y="286" type="curve"/>
      <point x="140" y="249" type="line"/>
      <point x="204" y="278" type="line" smooth="yes"/>
      <point x="294" y="319"/>
      <point x="346" y="379"/>
      <point x="346" y="446" type="curve" smooth="yes"/>
      <point x="346" y="484"/>
      <point x="336" y="512"/>
      <point x="321" y="533" type="curve"/>
      <point x="284" y="550" type="line"/>
      <point x="248" y="495"/>
      <point x="195" y="466"/>
      <point x="155" y="466" type="curve" smooth="yes"/>
      <point x="117" y="466"/>
      <point x="100" y="482"/>
      <point x="100" y="524" type="curve" smooth="yes"/>
      <point x="100" y="544"/>
      <point x="106" y="565"/>
      <point x="117" y="581" type="curve"/>
      <point x="97" y="581"/>
      <point x="75" y="577"/>
      <point x="60" y="571" type="curve"/>
      <point x="52" y="556"/>
      <point x="48" y="537"/>
      <point x="48" y="515" type="curve" smooth="yes"/>
      <point x="48" y="449"/>
      <point x="92" y="413"/>
      <point x="155" y="413" type="curve" smooth="yes"/>
      <point x="204" y="413"/>
      <point x="269" y="450"/>
      <point x="308" y="513" type="curve"/>
      <point x="286" y="525" type="line"/>
      <point x="298" y="507"/>
      <point x="304" y="490"/>
      <point x="304" y="467" type="curve" smooth="yes"/>
      <point x="304" y="411"/>
      <point x="268" y="372"/>
      <point x="184" y="329" type="curve" smooth="yes"/>
      <point x="106" y="289" type="line"/>
      <point x="107" y="270"/>
      <point x="120" y="249"/>
      <point x="137" y="236" type="curve"/>
      <point x="232" y="212"/>
      <point x="288" y="133"/>
    </contour>
    <contour>
      <point x="466" y="476" type="curve" smooth="yes"/>
      <point x="466" y="499"/>
      <point x="468" y="512"/>
      <point x="479" y="518" type="curve" smooth="yes"/>
      <point x="488" y="523"/>
      <point x="502" y="529"/>
      <point x="526" y="535" type="curve"/>
      <point x="529" y="539"/>
      <point x="531" y="549"/>
      <point x="531" y="559" type="curve" smooth="yes"/>
      <point x="531" y="568"/>
      <point x="529" y="577"/>
      <point x="526" y="581" type="curve"/>
      <point x="490" y="572"/>
      <point x="464" y="563"/>
      <point x="445" y="551" type="curve" smooth="yes"/>
      <point x="426" y="539"/>
      <point x="420" y="516"/>
      <point x="420" y="490" type="curve" smooth="yes"/>
      <point x="420" y="479"/>
      <point x="422" y="451"/>
      <point x="422" y="425" type="curve" smooth="yes"/>
      <point x="422" y="267"/>
      <point x="382" y="114"/>
      <point x="356" y="15" type="curve"/>
      <point x="266" y="-228" type="line"/>
      <point x="279" y="-236"/>
      <point x="297" y="-242"/>
      <point x="317" y="-242" type="curve"/>
      <point x="387" y="-60"/>
      <point x="466" y="237"/>
    </contour>
    <contour>
      <point x="288" y="-223" type="move" name="blwm"/>
    </contour>
    <contour>
      <point x="190" y="-220" type="move" name="haln"/>
    </contour>
    <contour>
      <point x="455" y="690" type="move" name="reph"/>
    </contour>
    <contour>
      <point x="455" y="690" type="move" name="chandrabindu"/>
    </contour>
  </outline>
</glyph>
<glyph name="bn_m_ba" format="1">
  <advance width="546"/>
  <outline>
    <contour>
      <point x="515" y="449" type="curve" smooth="yes"/>
      <point x="515" y="514"/>
      <point x="473" y="561"/>
      <point x="403" y="584" type="curve"/>
      <point x="345" y="564" type="line"/>
      <point x="415" y="564"/>
      <point x="467" y="526"/>
      <point x="467" y="458" type="curve" smooth="yes"/>
      <point x="467" y="399"/>
      <point x="428" y="362"/>
      <point x="358" y="362" type="curve" smooth="yes"/>
      <point x="285" y="362"/>
      <point x="235" y="403"/>
      <point x="215" y="440" type="curve"/>
      <point x="204" y="400" type="line"/>
      <point x="226" y="357"/>
      <point x="295" y="315"/>
      <point x="369" y="315" type="curve" smooth="yes"/>
      <point x="453" y="315"/>
      <point x="515" y="370"/>
    </contour>
    <contour>
      <point x="242" y="433" type="curve"/>
      <point x="200" y="456" type="line"/>
      <point x="197" y="395"/>
      <point x="169" y="363"/>
      <point x="127" y="363" type="curve" smooth="yes"/>
      <point x="92" y="363"/>
      <point x="71" y="385"/>
      <point x="71" y="416" type="curve" smooth="yes"/>
      <point x="71" y="444"/>
      <point x="89" y="471"/>
      <point x="124" y="471" type="curve" smooth="yes"/>
      <point x="155" y="471"/>
      <point x="184" y="449"/>
      <point x="202" y="411" type="curve"/>
      <point x="209" y="450" type="line"/>
      <point x="190" y="488"/>
      <point x="159" y="511"/>
      <point x="120" y="511" type="curve" smooth="yes"/>
      <point x="72" y="511"/>
      <point x="31" y="476"/>
      <point x="31" y="417" type="curve" smooth="yes"/>
      <point x="31" y="356"/>
      <point x="74" y="316"/>
      <point x="128" y="316" type="curve" smooth="yes"/>
      <point x="190" y="316"/>
      <point x="237" y="369"/>
    </contour>
    <contour>
      <point x="469" y="-37" type="curve"/>
      <point x="453" y="71"/>
      <point x="446" y="222"/>
      <point x="458" y="362" type="curve"/>
      <point x="414" y="341" type="line"/>
      <point x="404.761904762" y="234.761904762"/>
      <point x="405" y="86"/>
      <point x="416" y="-46" type="curve"/>
      <point x="436" y="-46"/>
      <point x="454" y="-44"/>
    </contour>
    <contour>
      <point x="244" y="452" type="curve" smooth="yes"/>
      <point x="244" y="510"/>
      <point x="217" y="550"/>
      <point x="185" y="580" type="curve"/>
      <point x="133" y="565" type="line"/>
      <point x="175" y="546"/>
      <point x="202" y="512"/>
      <point x="202" y="473" type="curve" smooth="yes"/>
      <point x="202" y="456"/>
      <point x="197" y="448"/>
      <point x="193" y="442" type="curve"/>
      <point x="236" y="399" type="line"/>
      <point x="241" y="409"/>
      <point x="244" y="432"/>
    </contour>
    <contour>
      <point x="271" y="566" type="curve" smooth="yes"/>
      <point x="382" y="566"/>
      <point x="467" y="551"/>
      <point x="546" y="535" type="curve"/>
      <point x="548" y="541"/>
      <point x="549" y="552"/>
      <point x="549" y="562" type="curve" smooth="yes"/>
      <point x="549" y="569"/>
      <point x="549" y="576"/>
      <point x="546" y="581" type="curve"/>
      <point x="477" y="600"/>
      <point x="384" y="616"/>
      <point x="271" y="616" type="curve" smooth="yes"/>
      <point x="157" y="616"/>
      <point x="78" y="600"/>
      <point x="0" y="581" type="curve"/>
      <point x="-3" y="576"/>
      <point x="-5" y="569"/>
      <point x="-5" y="561" type="curve" smooth="yes"/>
      <point x="-5" y="552"/>
      <point x="-3" y="543"/>
      <point x="0" y="535" type="curve"/>
      <point x="80" y="551"/>
      <point x="159" y="566"/>
    </contour>
    <contour>
      <point x="437" y="-24" type="line"/>
      <point x="403.186766189" y="85.3957564463"/>
      <point x="311.362703181" y="143.22658515"/>
      <point x="221" y="184" type="curve"/>
      <point x="212" y="159" type="line"/>
      <point x="268.085495705" y="211.346462658"/>
      <point x="382.542246385" y="268.306116397"/>
      <point x="436" y="280" type="curve"/>
      <point x="445" y="338" type="line"/>
      <point x="357.123022131" y="314.738447035"/>
      <point x="229.304082771" y="248.368923424"/>
      <point x="176" y="196" type="curve"/>
      <point x="176" y="177"/>
      <point x="185" y="157"/>
      <point x="203" y="140" type="curve"/>
      <point x="295.434577109" y="109.9309207"/>
      <point x="375.022364677" y="59.9421791267"/>
      <point x="416" y="-46" type="curve"/>
    </contour>
    <contour>
      <point x="433" y="-35" type="move" name="blwm"/>
    </contour>
    <contour>
      <point x="287" y="-35" type="move" name="haln"/>
    </contour>
    <contour>
      <point x="434" y="690" type="move" name="reph"/>
    </contour>
    <contour>
      <point x="434" y="690" type="move" name="chandrabindu"/>
    </contour>
  </outline>
</glyph>
<glyph name="bn_m_ma" format="1">
  <advance width="842"/>
  <outline>
    <contour>
      <point x="708" y="-5" type="curve"/>
      <point x="692.074404893" y="71.5945288473"/>
      <point x="678" y="161"/>
      <point x="678" y="244" type="curve" smooth="yes"/>
      <point x="678" y="418"/>
      <point x="694.186044416" y="460.337192361"/>
      <point x="708" y="572" type="curve"/>
      <point x="667" y="582" type="line"/>
      <point x="653.01137345" y="480.349313739"/>
      <point x="634.0" y="358.336870027"/>
      <point x="634" y="235" type="curve" smooth="yes"/>
      <point x="634.0" y="81.6742081448"/>
      <point x="647.567982657" y="29.0241214012"/>
      <point x="654" y="-16" type="curve"/>
      <point x="674" y="-16"/>
      <point x="693" y="-14"/>
    </contour>
    <contour>
      <point x="476" y="171" type="curve"/>
      <point x="425" y="197" type="line"/>
      <point x="422" y="129"/>
      <point x="395" y="95"/>
      <point x="355" y="95" type="curve" smooth="yes"/>
      <point x="322" y="95"/>
      <point x="301" y="117"/>
      <point x="301" y="147" type="curve" smooth="yes"/>
      <point x="301" y="176"/>
      <point x="320" y="203"/>
      <point x="352" y="203" type="curve" smooth="yes"/>
      <point x="387" y="203"/>
      <point x="431" y="190"/>
      <point x="444" y="161" type="curve"/>
      <point x="468" y="194" type="line"/>
      <point x="448" y="229"/>
      <point x="402" y="246"/>
      <point x="353" y="246" type="curve" smooth="yes"/>
      <point x="303" y="246"/>
      <point x="261" y="211"/>
      <point x="261" y="152" type="curve" smooth="yes"/>
      <point x="261" y="90"/>
      <point x="306" y="46"/>
      <point x="364" y="46" type="curve" smooth="yes"/>
      <point x="430" y="46"/>
      <point x="471" y="104"/>
    </contour>
    <contour>
      <point x="665" y="13" type="line"/>
      <point x="631.697486569" y="134.026207347"/>
      <point x="476.80008439" y="221.391383965"/>
      <point x="417" y="253" type="curve"/>
      <point x="400" y="204" type="line"/>
      <point x="512.688044382" y="145.094885891"/>
      <point x="591.585628026" y="103.154710132"/>
      <point x="654" y="-16" type="curve"/>
    </contour>
    <contour>
      <point x="430" y="574" type="curve" smooth="yes"/>
      <point x="622" y="574"/>
      <point x="751" y="554"/>
      <point x="842" y="535" type="curve"/>
      <point x="844" y="541"/>
      <point x="846" y="551"/>
      <point x="846" y="561" type="curve" smooth="yes"/>
      <point x="846" y="568"/>
      <point x="845" y="576"/>
      <point x="842" y="581" type="curve"/>
      <point x="761" y="603"/>
      <point x="623" y="624"/>
      <point x="429" y="624" type="curve" smooth="yes"/>
      <point x="226" y="624"/>
      <point x="86" y="604"/>
      <point x="0" y="581" type="curve"/>
      <point x="-3" y="576"/>
      <point x="-5" y="569"/>
      <point x="-5" y="561" type="curve" smooth="yes"/>
      <point x="-5" y="552"/>
      <point x="-3" y="543"/>
      <point x="0" y="535" type="curve"/>
      <point x="88" y="555"/>
      <point x="229" y="574"/>
    </contour>
    <contour>
      <point x="473" y="199" type="line"/>
      <point x="437.044064549" y="285.48860149"/>
      <point x="372.20665514" y="333.867876222"/>
      <point x="311" y="373" type="curve"/>
      <point x="298" y="339" type="line"/>
      <point x="345.202048415" y="309.875331829"/>
      <point x="391.605702862" y="274.839471326"/>
      <point x="423" y="208" type="curve"/>
    </contour>
    <contour>
      <point x="515" y="459" type="curve" smooth="yes"/>
      <point x="515" y="524"/>
      <point x="473" y="571"/>
      <point x="403" y="594" type="curve"/>
      <point x="345" y="574" type="line"/>
      <point x="415" y="574"/>
      <point x="467" y="536"/>
      <point x="467" y="468" type="curve" smooth="yes"/>
      <point x="467" y="409"/>
      <point x="428" y="372"/>
      <point x="358" y="372" type="curve" smooth="yes"/>
      <point x="285" y="372"/>
      <point x="235" y="413"/>
      <point x="215" y="450" type="curve"/>
      <point x="204" y="410" type="line"/>
      <point x="226" y="367"/>
      <point x="295" y="325"/>
      <point x="369" y="325" type="curve" smooth="yes"/>
      <point x="453" y="325"/>
      <point x="515" y="380"/>
    </contour>
    <contour>
      <point x="242" y="443" type="curve"/>
      <point x="200" y="466" type="line"/>
      <point x="197" y="405"/>
      <point x="169" y="373"/>
      <point x="127" y="373" type="curve" smooth="yes"/>
      <point x="92" y="373"/>
      <point x="71" y="395"/>
      <point x="71" y="426" type="curve" smooth="yes"/>
      <point x="71" y="454"/>
      <point x="89" y="481"/>
      <point x="124" y="481" type="curve" smooth="yes"/>
      <point x="155" y="481"/>
      <point x="184" y="459"/>
      <point x="202" y="421" type="curve"/>
      <point x="209" y="460" type="line"/>
      <point x="190" y="498"/>
      <point x="159" y="521"/>
      <point x="120" y="521" type="curve" smooth="yes"/>
      <point x="72" y="521"/>
      <point x="31" y="486"/>
      <point x="31" y="427" type="curve" smooth="yes"/>
      <point x="31" y="366"/>
      <point x="74" y="326"/>
      <point x="128" y="326" type="curve" smooth="yes"/>
      <point x="190" y="326"/>
      <point x="237" y="379"/>
    </contour>
    <contour>
      <point x="244" y="462" type="curve" smooth="yes"/>
      <point x="244" y="520"/>
      <point x="217" y="560"/>
      <point x="185" y="590" type="curve"/>
      <point x="133" y="575" type="line"/>
      <point x="175" y="556"/>
      <point x="202" y="522"/>
      <point x="202" y="483" type="curve" smooth="yes"/>
      <point x="202" y="466"/>
      <point x="197" y="458"/>
      <point x="193" y="452" type="curve"/>
      <point x="236" y="409" type="line"/>
      <point x="241" y="419"/>
      <point x="244" y="442"/>
    </contour>
    <contour>
      <point x="668" y="-5" type="move" name="blwm"/>
    </contour>
    <contour>
      <point x="514" y="-4" type="move" name="haln"/>
    </contour>
    <contour>
      <point x="653" y="690" type="move" name="reph"/>
    </contour>
    <contour>
      <point x="653" y="690" type="move" name="chandrabindu"/>
    </contour>
  </outline>
</glyph>
<glyph name="bn_s_pha" format="1">
  <advance width="860"/>
  <outline>
    <contour>
      <point x="643" y="-240" type="curve"/>
      <point x="617" y="-158"/>
      <point x="614" y="-26"/>
      <point x="614" y="57" type="curve" smooth="yes"/>
      <point x="614" y="116"/>
      <point x="615" y="163"/>
      <point x="619" y="208" type="curve"/>
      <point x="612" y="201" type="line"/>
      <point x="712" y="183"/>
      <point x="795" y="139"/>
      <point x="795" y="69" type="curve" smooth="yes"/>
      <point x="795" y="22"/>
      <point x="757" y="-11"/>
      <point x="696" y="-32" type="curve"/>
      <point x="705" y="-57"/>
      <point x="722" y="-74"/>
      <point x="737" y="-78" type="curve"/>
      <point x="786" y="-54"/>
      <point x="831" y="5"/>
      <point x="831" y="69" type="curve" smooth="yes"/>
      <point x="831" y="155"/>
      <point x="749" y="239"/>
      <point x="578" y="263" type="curve"/>
      <point x="569" y="172"/>
      <point x="565" y="83"/>
      <point x="565" y="-29" type="curve" smooth="yes"/>
      <point x="565" y="-156"/>
      <point x="578" y="-212"/>
      <point x="589" y="-250" type="curve"/>
      <point x="609" y="-250"/>
      <point x="629" y="-248"/>
    </contour>
    <contour>
      <point x="604" y="-221" type="line"/>
      <point x="539" y="-79"/>
      <point x="433" y="-4"/>
      <point x="323" y="31" type="curve"/>
      <point x="320" y="3" type="line"/>
      <point x="488" y="153" type="line"/>
      <point x="434" y="171" type="line"/>
      <point x="279" y="36" type="line"/>
      <point x="281" y="16"/>
      <point x="288" y="-2"/>
      <point x="312" y="-20" type="curve"/>
      <point x="423" y="-43"/>
      <point x="514" y="-115"/>
      <point x="589" y="-250" type="curve"/>
    </contour>
    <contour>
      <point x="488" y="153" type="line"/>
      <point x="448" y="190" type="line" smooth="yes"/>
      <point x="378.372858573" y="254.40510582"/>
      <point x="340" y="294"/>
      <point x="304" y="373" type="curve"/>
      <point x="219" y="480" type="line"/>
      <point x="219.0" y="346.946564885"/>
      <point x="362.709850816" y="224.948097532"/>
      <point x="434" y="148" type="curve"/>
    </contour>
    <contour>
      <point x="427" y="566" type="curve" smooth="yes"/>
      <point x="601" y="566"/>
      <point x="738" y="560"/>
      <point x="860" y="535" type="curve"/>
      <point x="862" y="541"/>
      <point x="863" y="552"/>
      <point x="863" y="562" type="curve" smooth="yes"/>
      <point x="863" y="569"/>
      <point x="863" y="576"/>
      <point x="860" y="581" type="curve"/>
      <point x="753" y="610"/>
      <point x="605" y="616"/>
      <point x="427" y="616" type="curve" smooth="yes"/>
      <point x="247" y="616"/>
      <point x="122" y="611"/>
      <point x="0" y="581" type="curve"/>
      <point x="-3" y="576"/>
      <point x="-5" y="569"/>
      <point x="-5" y="561" type="curve" smooth="yes"/>
      <point x="-5" y="552"/>
      <point x="-3" y="543"/>
      <point x="0" y="535" type="curve"/>
      <point x="125" y="560"/>
      <point x="251" y="566"/>
    </contour>
    <contour>
      <point x="94" y="375" type="curve" smooth="yes"/>
      <point x="72" y="375"/>
      <point x="45" y="383"/>
      <point x="28" y="399" type="curve"/>
      <point x="43" y="345" type="line"/>
      <point x="59" y="336"/>
      <point x="79" y="329"/>
      <point x="101" y="329" type="curve" smooth="yes"/>
      <point x="171" y="329"/>
      <point x="229" y="400"/>
      <point x="232" y="570" type="curve"/>
      <point x="192" y="576" type="line"/>
      <point x="189" y="437"/>
      <point x="157" y="375"/>
    </contour>
    <contour>
      <point x="514" y="448" type="curve" smooth="yes"/>
      <point x="514" y="517"/>
      <point x="467" y="562"/>
      <point x="400" y="584" type="curve"/>
      <point x="347" y="565" type="line"/>
      <point x="413" y="562"/>
      <point x="467" y="528"/>
      <point x="467" y="457" type="curve" smooth="yes"/>
      <point x="467" y="401"/>
      <point x="432" y="367"/>
      <point x="380" y="367" type="curve" smooth="yes"/>
      <point x="300" y="367"/>
      <point x="244" y="447"/>
      <point x="242" y="576" type="curve"/>
      <point x="204" y="570" type="line"/>
      <point x="206" y="404"/>
      <point x="291" y="321"/>
      <point x="384" y="321" type="curve" smooth="yes"/>
      <point x="457" y="321"/>
      <point x="514" y="372"/>
    </contour>
    <contour>
      <point x="603" y="-240" type="move" name="blwm"/>
    </contour>
    <contour>
      <point x="429" y="-240" type="move" name="haln"/>
    </contour>
    <contour>
      <point x="505" y="690" type="move" name="reph"/>
    </contour>
    <contour>
      <point x="505" y="690" type="move" name="chandrabindu"/>
    </contour>
  </outline>
</glyph>
<glyph name="bn_s_ta" format="1">
  <advance width="627"/>
  <outline>
    <contour>
      <point x="106" y="555"/>
      <point x="192" y="564"/>
      <point x="327" y="564" type="curve" smooth="yes"/>
      <point x="448" y="564"/>
      <point x="533" y="553"/>
      <point x="627" y="535" type="curve"/>
      <point x="629" y="541"/>
      <point x="630" y="552"/>
      <point x="630" y="562" type="curve" smooth="yes"/>
      <point x="630" y="569"/>
      <point x="630" y="576"/>
      <point x="627" y="581" type="curve"/>
      <point x="545" y="602"/>
      <point x="451" y="614"/>
      <point x="327" y="614" type="curve" smooth="yes"/>
      <point x="189" y="614"/>
      <point x="103" y="605"/>
      <point x="0" y="581" type="curve"/>
      <point x="-3" y="576"/>
      <point x="-5" y="569"/>
      <point x="-5" y="561" type="curve" smooth="yes"/>
      <point x="-5" y="552"/>
      <point x="-3" y="543"/>
      <point x="0" y="535" type="curve"/>
    </contour>
    <contour>
      <point x="532" y="-30"/>
      <point x="599" y="41"/>
      <point x="599" y="146" type="curve" smooth="yes"/>
      <point x="599" y="259"/>
      <point x="531" y="346"/>
      <point x="448" y="346" type="curve" smooth="yes"/>
      <point x="385" y="346"/>
      <point x="347" y="304"/>
      <point x="347" y="250" type="curve" smooth="yes"/>
      <point x="347" y="216"/>
      <point x="361" y="180"/>
      <point x="384" y="157" type="curve"/>
      <point x="389" y="155"/>
      <point x="400" y="153"/>
      <point x="409" y="153" type="curve" smooth="yes"/>
      <point x="425" y="153"/>
      <point x="440" y="157"/>
      <point x="451" y="162" type="curve"/>
      <point x="419" y="184"/>
      <point x="401" y="217"/>
      <point x="401" y="248" type="curve" smooth="yes"/>
      <point x="401" y="281"/>
      <point x="417" y="305"/>
      <point x="455" y="305" type="curve" smooth="yes"/>
      <point x="510" y="305"/>
      <point x="553" y="251"/>
      <point x="553" y="160" type="curve" smooth="yes"/>
      <point x="553" y="73"/>
      <point x="503" y="24"/>
      <point x="418" y="24" type="curve" smooth="yes"/>
      <point x="281.0" y="24.0"/>
      <point x="146.390656521" y="148.027251815"/>
      <point x="72" y="365" type="curve"/>
      <point x="57" y="361"/>
      <point x="41" y="355"/>
      <point x="28" y="347" type="curve"/>
      <point x="79.008480198" y="195.764330641"/>
      <point x="204.0" y="-30.0"/>
      <point x="419" y="-30" type="curve" smooth="yes"/>
    </contour>
    <contour>
      <point x="537" y="321"/>
      <point x="594" y="372"/>
      <point x="594" y="448" type="curve" smooth="yes"/>
      <point x="594" y="517"/>
      <point x="547" y="562"/>
      <point x="480" y="584" type="curve"/>
      <point x="423" y="564" type="line"/>
      <point x="490" y="561"/>
      <point x="547" y="528"/>
      <point x="547" y="457" type="curve" smooth="yes"/>
      <point x="547" y="401"/>
      <point x="512" y="367"/>
      <point x="460" y="367" type="curve" smooth="yes"/>
      <point x="380" y="367"/>
      <point x="324" y="447"/>
      <point x="322" y="576" type="curve"/>
      <point x="284" y="570" type="line"/>
      <point x="286" y="404"/>
      <point x="371" y="321"/>
      <point x="464" y="321" type="curve" smooth="yes"/>
    </contour>
    <contour>
      <point x="251" y="329"/>
      <point x="309" y="400"/>
      <point x="312" y="570" type="curve"/>
      <point x="272" y="576" type="line"/>
      <point x="269" y="437"/>
      <point x="237" y="375"/>
      <point x="174" y="375" type="curve" smooth="yes"/>
      <point x="152" y="375"/>
      <point x="125" y="383"/>
      <point x="108" y="399" type="curve"/>
      <point x="123" y="345" type="line"/>
      <point x="139" y="336"/>
      <point x="159" y="329"/>
      <point x="181" y="329" type="curve" smooth="yes"/>
    </contour>
    <contour>
      <point x="437" y="-20" type="move" name="blwm"/>
    </contour>
    <contour>
      <point x="274" y="-20" type="move" name="haln"/>
    </contour>
    <contour>
      <point x="310" y="690" type="move" name="reph"/>
    </contour>
    <contour>
      <point x="310" y="690" type="move" name="chandrabindu"/>
    </contour>
  </outline>
</glyph>
<glyph name="bn_sha.half" format="1">
  <advance width="510"/>
  <outline>
    <contour>
      <point x="443.711483896" y="270.397989362"/>
      <point x="439.939487169" y="340.511452276"/>
      <point x="442" y="482" type="curve" smooth="yes"/>
      <point x="442" y="501"/>
      <point x="446" y="509"/>
      <point x="462" y="518" type="curve" smooth="yes"/>
      <point x="471" y="523"/>
      <point x="486" y="529"/>
      <point x="510" y="535" type="curve"/>
      <point x="513" y="539"/>
      <point x="515" y="549"/>
      <point x="515" y="559" type="curve" smooth="yes"/>
      <point x="515" y="568"/>
      <point x="513" y="577"/>
      <point x="510" y="581" type="curve"/>
      <point x="474" y="572"/>
      <point x="447" y="563"/>
      <point x="429" y="551" type="curve" smooth="yes"/>
      <point x="409" y="538"/>
      <point x="401" y="520"/>
      <point x="401" y="507" type="curve" smooth="yes"/>
      <point x="401" y="435" type="line"/>
      <point x="394" y="416" type="line"/>
      <point x="394.0" y="289.758865248"/>
      <point x="379.912048953" y="229.203961044"/>
      <point x="354" y="149" type="curve"/>
      <point x="368" y="143"/>
      <point x="391" y="140"/>
      <point x="415" y="140" type="curve"/>
    </contour>
    <contour>
      <point x="169" y="289"/>
      <point x="200" y="367"/>
      <point x="200" y="437" type="curve" smooth="yes"/>
      <point x="200" y="467"/>
      <point x="194" y="495"/>
      <point x="185" y="517" type="curve"/>
      <point x="155" y="504" type="line"/>
      <point x="162" y="487"/>
      <point x="165" y="463"/>
      <point x="165" y="441" type="curve" smooth="yes"/>
      <point x="165" y="379"/>
      <point x="143" y="331"/>
      <point x="109" y="331" type="curve" smooth="yes"/>
      <point x="91" y="331"/>
      <point x="78" y="341"/>
      <point x="78" y="371" type="curve" smooth="yes"/>
      <point x="78" y="424"/>
      <point x="118" y="493"/>
      <point x="177" y="491" type="curve"/>
      <point x="184" y="509" type="line"/>
      <point x="161" y="525" type="line"/>
      <point x="76" y="509"/>
      <point x="36" y="432"/>
      <point x="36" y="368" type="curve" smooth="yes"/>
      <point x="36" y="311"/>
      <point x="69" y="289"/>
      <point x="105" y="289" type="curve" smooth="yes"/>
    </contour>
    <contour>
      <point x="196" y="532"/>
      <point x="163" y="596"/>
      <point x="92" y="596" type="curve" smooth="yes"/>
      <point x="70" y="596"/>
      <point x="29" y="589"/>
      <point x="0" y="581" type="curve"/>
      <point x="-3" y="576"/>
      <point x="-5" y="569"/>
      <point x="-5" y="560" type="curve" smooth="yes"/>
      <point x="-5" y="552"/>
      <point x="-3" y="543"/>
      <point x="0" y="535" type="curve"/>
      <point x="21" y="541"/>
      <point x="68" y="549"/>
      <point x="90" y="549" type="curve" smooth="yes"/>
      <point x="147" y="549"/>
      <point x="169" y="506"/>
      <point x="169" y="456" type="curve"/>
      <point x="196" y="437" type="line"/>
    </contour>
    <contour>
      <point x="302" y="292"/>
      <point x="327" y="327"/>
      <point x="327" y="379" type="curve" smooth="yes"/>
      <point x="327" y="454"/>
      <point x="275" y="517"/>
      <point x="216" y="527" type="curve"/>
      <point x="185" y="498" type="line"/>
      <point x="241" y="498"/>
      <point x="289" y="447"/>
      <point x="289" y="381" type="curve" smooth="yes"/>
      <point x="289" y="350"/>
      <point x="280" y="335"/>
      <point x="260" y="335" type="curve" smooth="yes"/>
      <point x="226" y="335"/>
      <point x="207" y="381"/>
      <point x="207" y="434" type="curve" smooth="yes"/>
      <point x="207" y="464"/>
      <point x="214" y="492"/>
      <point x="225" y="513" type="curve"/>
      <point x="190" y="533" type="line"/>
      <point x="176" y="506"/>
      <point x="167" y="470"/>
      <point x="167" y="429" type="curve" smooth="yes"/>
      <point x="167" y="350"/>
      <point x="199" y="292"/>
      <point x="257" y="292" type="curve" smooth="yes"/>
    </contour>
    <contour>
      <point x="416" y="473"/>
      <point x="369" y="609"/>
      <point x="279" y="609" type="curve" smooth="yes"/>
      <point x="226" y="609"/>
      <point x="190" y="561"/>
      <point x="178" y="497" type="curve"/>
      <point x="216" y="498" type="line"/>
      <point x="228" y="532"/>
      <point x="251" y="555"/>
      <point x="281" y="555" type="curve" smooth="yes"/>
      <point x="337" y="555"/>
      <point x="394" y="477"/>
      <point x="394" y="339" type="curve"/>
      <point x="418" y="311" type="line"/>
    </contour>
  </outline>
</glyph>
<glyph name="bn_ss_pha" format="1">
  <advance width="860"/>
  <outline>
    <contour>
      <point x="427" y="566" type="curve" smooth="yes"/>
      <point x="601" y="566"/>
      <point x="738" y="560"/>
      <point x="860" y="535" type="curve"/>
      <point x="862" y="541"/>
      <point x="863" y="552"/>
      <point x="863" y="562" type="curve" smooth="yes"/>
      <point x="863" y="569"/>
      <point x="863" y="576"/>
      <point x="860" y="581" type="curve"/>
      <point x="753" y="610"/>
      <point x="605" y="616"/>
      <point x="427" y="616" type="curve" smooth="yes"/>
      <point x="247" y="616"/>
      <point x="122" y="611"/>
      <point x="0" y="581" type="curve"/>
      <point x="-3" y="576"/>
      <point x="-5" y="569"/>
      <point x="-5" y="561" type="curve" smooth="yes"/>
      <point x="-5" y="552"/>
      <point x="-3" y="543"/>
      <point x="0" y="535" type="curve"/>
      <point x="125" y="560"/>
      <point x="251" y="566"/>
    </contour>
    <contour>
      <point x="643" y="-240" type="curve"/>
      <point x="617" y="-158"/>
      <point x="614" y="-26"/>
      <point x="614" y="57" type="curve" smooth="yes"/>
      <point x="614" y="116"/>
      <point x="615" y="163"/>
      <point x="619" y="208" type="curve"/>
      <point x="612" y="201" type="line"/>
      <point x="712" y="183"/>
      <point x="795" y="139"/>
      <point x="795" y="69" type="curve" smooth="yes"/>
      <point x="795" y="22"/>
      <point x="757" y="-11"/>
      <point x="696" y="-32" type="curve"/>
      <point x="705" y="-57"/>
      <point x="722" y="-74"/>
      <point x="737" y="-78" type="curve"/>
      <point x="786" y="-54"/>
      <point x="831" y="5"/>
      <point x="831" y="69" type="curve" smooth="yes"/>
      <point x="831" y="155"/>
      <point x="749" y="239"/>
      <point x="578" y="263" type="curve"/>
      <point x="569" y="172"/>
      <point x="565" y="83"/>
      <point x="565" y="-29" type="curve" smooth="yes"/>
      <point x="565" y="-156"/>
      <point x="578" y="-212"/>
      <point x="589" y="-250" type="curve"/>
      <point x="609" y="-250"/>
      <point x="629" y="-248"/>
    </contour>
    <contour>
      <point x="604" y="-221" type="line"/>
      <point x="539" y="-79"/>
      <point x="433" y="-4"/>
      <point x="323" y="31" type="curve"/>
      <point x="320" y="3" type="line"/>
      <point x="488" y="153" type="line"/>
      <point x="434" y="171" type="line"/>
      <point x="279" y="36" type="line"/>
      <point x="281" y="16"/>
      <point x="288" y="-2"/>
      <point x="312" y="-20" type="curve"/>
      <point x="423" y="-43"/>
      <point x="514" y="-115"/>
      <point x="589" y="-250" type="curve"/>
    </contour>
    <contour>
      <point x="488" y="153" type="line"/>
      <point x="448" y="186" type="line" smooth="yes"/>
      <point x="370.883277505" y="249.621296059"/>
      <point x="336" y="273"/>
      <point x="275" y="354" type="curve"/>
      <point x="242" y="331" type="line"/>
      <point x="279" y="272"/>
      <point x="385.367729293" y="200.491974731"/>
      <point x="434" y="148" type="curve"/>
    </contour>
    <contour>
      <point x="350" y="470" type="curve"/>
      <point x="350" y="544"/>
      <point x="300" y="594"/>
      <point x="232" y="594" type="curve" smooth="yes"/>
      <point x="111" y="594"/>
      <point x="25" y="453"/>
      <point x="25" y="367" type="curve"/>
      <point x="25" y="293"/>
      <point x="75" y="243"/>
      <point x="143" y="243" type="curve" smooth="yes"/>
      <point x="264" y="243"/>
      <point x="350" y="384"/>
    </contour>
    <contour>
      <point x="72" y="357" type="curve" smooth="yes"/>
      <point x="72" y="438"/>
      <point x="159" y="557"/>
      <point x="235" y="557" type="curve" smooth="yes"/>
      <point x="272" y="557"/>
      <point x="304" y="528"/>
      <point x="304" y="481" type="curve" smooth="yes"/>
      <point x="304" y="406"/>
      <point x="220" y="286"/>
      <point x="138" y="286" type="curve" smooth="yes"/>
      <point x="101" y="286"/>
      <point x="72" y="311"/>
    </contour>
    <contour>
      <point x="278" y="349" type="line"/>
      <point x="231" y="397"/>
      <point x="175" y="483"/>
      <point x="146" y="544" type="curve"/>
      <point x="112" y="520" type="line"/>
      <point x="140" y="459"/>
      <point x="196" y="373"/>
      <point x="243" y="324" type="curve"/>
    </contour>
    <contour>
      <point x="602" y="-240" type="move" name="blwm"/>
    </contour>
    <contour>
      <point x="385" y="-240" type="move" name="haln"/>
    </contour>
    <contour>
      <point x="453" y="690" type="move" name="reph"/>
    </contour>
    <contour>
      <point x="453" y="690" type="move" name="chandrabindu"/>
    </contour>
  </outline>
</glyph>
